<svg width="130" height="130" viewBox="0 0 130 130" fill="none" xmlns="http://www.w3.org/2000/svg">
<path d="M120.479 4.69727H9.52148C4.27121 4.69727 0 8.96848 0 14.2188V98.0078C0 103.258 4.27121 107.529 9.52148 107.529H50.161L47.8689 115.551C46.9485 118.773 43.3405 121.494 39.9902 121.494H25.6445C24.5929 121.494 23.7402 122.347 23.7402 123.398C23.7402 124.45 24.5929 125.303 25.6445 125.303H104.355C105.407 125.303 106.26 124.45 106.26 123.398C106.26 122.347 105.407 121.494 104.355 121.494H90.0098C86.6595 121.494 83.0515 118.773 82.1311 115.551L79.839 107.529H120.479C125.729 107.529 130 103.258 130 98.0078V14.2188C130 8.96848 125.729 4.69727 120.479 4.69727ZM9.52148 8.50586H120.479C123.629 8.50586 126.191 11.0688 126.191 14.2188V80.8691H3.80859V14.2188C3.80859 11.0688 6.37127 8.50586 9.52148 8.50586ZM78.469 116.598C78.9915 118.427 80.0302 120.108 81.3919 121.494H48.6081C49.9698 120.108 51.0085 118.427 51.531 116.598L54.1219 107.529H75.8779L78.469 116.598ZM120.479 103.721H9.52148C6.37127 103.721 3.80859 101.158 3.80859 98.0078V84.6777H126.191V98.0078C126.191 101.158 123.629 103.721 120.479 103.721Z" fill="#A239CA"/>
<path d="M9.52148 77.0605H120.479C121.53 77.0605 122.383 76.2082 122.383 75.1562V14.2188C122.383 13.1668 121.53 12.3145 120.479 12.3145H9.52148C8.4698 12.3145 7.61719 13.1668 7.61719 14.2188V40.8789C7.61719 41.9308 8.4698 42.7832 9.52148 42.7832C10.5732 42.7832 11.4258 41.9308 11.4258 40.8789V16.123H118.574V73.252H11.4258V48.4961C11.4258 47.4442 10.5732 46.5918 9.52148 46.5918C8.4698 46.5918 7.61719 47.4442 7.61719 48.4961V75.1562C7.61719 76.2082 8.4698 77.0605 9.52148 77.0605Z" fill="#A239CA"/>
<path d="M65 88.4863C61.8498 88.4863 59.2871 91.0493 59.2871 94.1992C59.2871 97.3492 61.8498 99.9121 65 99.9121C68.1502 99.9121 70.7129 97.3492 70.7129 94.1992C70.7129 91.0493 68.1502 88.4863 65 88.4863ZM65 96.1035C63.9498 96.1035 63.0957 95.2494 63.0957 94.1992C63.0957 93.1491 63.9498 92.2949 65 92.2949C66.0502 92.2949 66.9043 93.1491 66.9043 94.1992C66.9043 95.2494 66.0502 96.1035 65 96.1035Z" fill="#A239CA"/>
</svg>
