<svg width="130" height="130" viewBox="0 0 130 130" fill="none" xmlns="http://www.w3.org/2000/svg">
<path d="M57.005 76.0348C57.1307 76.195 57.2521 76.3598 57.3734 76.5266C57.2521 76.3598 57.1307 76.1952 57.005 76.0348Z" fill="#78B9EB"/>
<path d="M55.6702 74.4944C55.7591 74.5853 55.837 74.6828 55.9236 74.7759C55.8373 74.6828 55.7591 74.5853 55.6702 74.4944Z" fill="#78B9EB"/>
<path d="M58.2466 77.8614C58.3246 77.9937 58.4114 78.1214 58.4871 78.2557C58.4111 78.1214 58.3246 78 58.2466 77.8614Z" fill="#78B9EB"/>
<path d="M59.3666 80.0866C59.425 80.2318 59.4727 80.3834 59.5291 80.52C59.4727 80.3834 59.4252 80.2316 59.3666 80.0866Z" fill="#78B9EB"/>
<path d="M53.7616 72.8411C53.8982 72.9452 54.0411 73.0448 54.1755 73.1509C54.0409 73.0427 53.8979 72.9452 53.7616 72.8411Z" fill="#78B9EB"/>
<path d="M51.9632 71.6473C52.1386 71.7471 52.3098 71.8639 52.4832 71.9614C52.3098 71.8552 52.1386 71.7491 51.9632 71.6473Z" fill="#78B9EB"/>
<path d="M53.1159 100.967C54.3964 100.161 55.5969 99.2375 56.7039 98.2064C57.0093 97.9182 57.278 97.5889 57.4991 97.2314C58.6864 95.3162 59.5639 93.2253 60.0991 91.0369C59.0439 95.0798 56.5653 98.6073 53.1159 100.967Z" fill="#78B9EB"/>
<path d="M45.4805 69.4807C45.6864 69.5045 45.8877 69.5414 46.0893 69.5739C45.8877 69.55 45.6864 69.5045 45.4805 69.4807Z" fill="#78B9EB"/>
<path d="M50.1346 70.72C50.2105 70.7525 50.2798 70.7937 50.3511 70.8262C50.2798 70.7937 50.2102 70.7525 50.1346 70.72Z" fill="#78B9EB"/>
<path d="M60.0318 82.0711C60.0882 82.2748 60.1402 82.4784 60.19 82.6843C60.1402 82.4784 60.0882 82.2748 60.0318 82.0711Z" fill="#78B9EB"/>
<path d="M43.2532 104C42.7614 104 42.2825 103.95 41.8016 103.907C42.2825 103.946 42.7614 104 43.2532 104Z" fill="#78B9EB"/>
<path d="M47.7186 103.419L47.4586 103.487L47.7186 103.419Z" fill="#78B9EB"/>
<path d="M60.5021 84.3982C60.5193 84.5259 60.5455 84.6496 60.5605 84.7773C60.5452 84.6496 60.5193 84.5259 60.5021 84.3982Z" fill="#78B9EB"/>
<path d="M41.0866 103.853C40.3845 103.76 39.6868 103.63 39 103.458C39.6868 103.63 40.3845 103.76 41.0866 103.853Z" fill="#78B9EB"/>
<path d="M45.5736 103.84C45.4738 103.853 45.3809 103.872 45.2811 103.883C45.3786 103.872 45.4761 103.853 45.5736 103.84Z" fill="#78B9EB"/>
<path d="M52.8341 101.157C52.5263 101.359 52.21 101.547 51.8893 101.731C52.2166 101.558 52.52 101.352 52.8341 101.157Z" fill="#78B9EB"/>
<path d="M60.6536 86.9245C60.6536 87.1129 60.6341 87.2973 60.6255 87.4836C60.6341 87.2973 60.6516 87.1 60.6536 86.9245Z" fill="#78B9EB"/>
<path d="M60.4716 89.1346C60.4348 89.3902 60.4023 89.6479 60.3546 89.8993C60.4003 89.6436 60.4371 89.3902 60.4716 89.1346Z" fill="#78B9EB"/>
<path d="M47.6407 69.8946C47.8271 69.9423 48.0155 69.9834 48.1998 70.0375C48.0155 69.9834 47.8271 69.9423 47.6407 69.8946Z" fill="#78B9EB"/>
<path d="M58.4871 78.2557C58.8164 78.8473 59.1089 79.4605 59.3668 80.0866C59.1089 79.4602 58.8164 78.8473 58.4871 78.2557Z" fill="#78B9EB"/>
<path d="M59.5291 80.5284C59.7198 81.0332 59.8889 81.5468 60.0318 82.0712C59.8889 81.5468 59.7198 81.0334 59.5291 80.5284Z" fill="#78B9EB"/>
<path d="M60.6666 86.6665C60.6643 86.0361 60.6298 85.4056 60.5605 84.7772C60.6364 85.4899 60.6666 86.2072 60.6536 86.9245C60.6666 86.8377 60.6666 86.7534 60.6666 86.6665Z" fill="#78B9EB"/>
<path d="M60.19 82.6843C60.3223 83.2497 60.4261 83.8218 60.5021 84.3982C60.4261 83.8218 60.3223 83.2497 60.19 82.6843Z" fill="#78B9EB"/>
<path d="M46.0893 69.5739C46.6159 69.6561 47.1316 69.7645 47.6407 69.8945C47.1316 69.7666 46.6159 69.6561 46.0893 69.5739Z" fill="#78B9EB"/>
<path d="M43.3334 69.3334C44.0507 69.3377 44.7677 69.3875 45.4807 69.4807C44.7677 69.3875 44.0505 69.3377 43.3334 69.3334Z" fill="#78B9EB"/>
<path d="M50.3534 70.8261C50.9036 71.0709 51.4412 71.3438 51.9632 71.6472C51.4409 71.3461 50.9036 71.0709 50.3534 70.8261Z" fill="#78B9EB"/>
<path d="M48.1998 70.0374C48.8584 70.2258 49.5041 70.4533 50.1346 70.7199C49.5041 70.4533 48.8584 70.2258 48.1998 70.0374Z" fill="#78B9EB"/>
<path d="M57.3734 76.5266C57.6832 76.96 57.9757 77.3932 58.24 77.8614C57.9757 77.4021 57.6832 76.9557 57.3734 76.5266Z" fill="#78B9EB"/>
<path d="M55.9239 74.7759C56.3029 75.1768 56.6648 75.597 57.0073 76.0347C56.667 75.5973 56.3052 75.1768 55.9239 74.7759Z" fill="#78B9EB"/>
<path d="M52.4832 71.9616C52.9166 72.2368 53.3498 72.5314 53.7616 72.8414C53.3477 72.5314 52.923 72.2366 52.4832 71.9616Z" fill="#78B9EB"/>
<path d="M54.1666 73.1509C54.6909 73.5691 55.1893 74.0175 55.6616 74.4943C55.1893 74.0198 54.6889 73.5713 54.1666 73.1509Z" fill="#78B9EB"/>
<path d="M51.8895 101.732C50.5723 102.462 49.1725 103.027 47.7186 103.419C49.1768 103.04 50.5786 102.475 51.8895 101.732Z" fill="#78B9EB"/>
<path d="M47.45 103.487C46.8282 103.638 46.1998 103.758 45.565 103.84C46.1998 103.757 46.8282 103.638 47.45 103.487Z" fill="#78B9EB"/>
<path d="M43.3334 104C43.9857 103.998 44.6357 103.959 45.2834 103.883C44.6096 103.961 43.9337 103.998 43.2555 103.996L43.3334 104Z" fill="#78B9EB"/>
<path d="M41.8016 103.902C41.5655 103.881 41.3207 103.883 41.0866 103.853C41.3205 103.883 41.5652 103.881 41.8016 103.902Z" fill="#78B9EB"/>
<path d="M60.6255 87.4834C60.6016 88.0293 60.5475 88.5798 60.4716 89.1343C60.5498 88.5907 60.5996 88.0402 60.6255 87.4834Z" fill="#78B9EB"/>
<path d="M53.1159 100.967C53.0228 101.027 52.9296 101.092 52.8344 101.151L53.1159 100.967Z" fill="#78B9EB"/>
<path d="M60.3548 89.8993C60.2855 90.2784 60.1814 90.662 60.0882 91.0434C60.1857 90.6641 60.2809 90.2873 60.3548 89.8993Z" fill="#78B9EB"/>
<path d="M80.1666 75.8334H77.7832C76.8861 75.8357 76.0845 75.2766 75.7768 74.4336C75.5125 73.7402 75.2286 73.062 74.9232 72.3905C74.5441 71.5737 74.7172 70.6073 75.3566 69.9725L77.0552 68.2716C79.5773 65.728 79.573 61.6243 77.0443 59.087L70.9213 52.9641C68.3797 50.4377 64.2761 50.4377 61.7348 52.9641L60.0361 54.6607C59.4014 55.2978 58.435 55.4709 57.6182 55.0941C56.9466 54.7887 56.2684 54.5048 55.573 54.2275C54.7257 53.9221 54.1646 53.1159 54.1668 52.2169V49.8334C54.1668 46.2432 51.2571 43.3334 47.6668 43.3334H39C35.4098 43.3334 32.5 46.2432 32.5 49.8334V52.2169C32.5023 53.1139 31.9432 53.9155 31.1002 54.2232C30.4068 54.4875 29.7286 54.7714 29.057 55.0769C28.2402 55.4539 27.2738 55.2805 26.6391 54.6434L24.9382 52.9448C22.3966 50.4207 18.2952 50.4207 15.7536 52.9448L9.63066 59.0873C7.1043 61.6289 7.1043 65.7325 9.63066 68.2739L11.3273 69.9725C11.9663 70.6073 12.1398 71.5737 11.7607 72.3905C11.4552 73.062 11.1714 73.7402 10.9048 74.4357C10.595 75.283 9.78453 75.8418 8.88316 75.8332H6.5C2.90977 75.8332 0 78.7429 0 82.3332V91C0 94.5903 2.90977 97.5 6.5 97.5H8.88342C9.78047 97.4977 10.5821 98.0568 10.8898 98.8998C11.1541 99.5932 11.438 100.271 11.7434 100.943C12.1225 101.76 11.9493 102.726 11.31 103.361L9.61137 105.062C7.08729 107.603 7.08729 111.705 9.61137 114.246L15.7343 120.369C18.2759 122.896 22.3796 122.896 24.9209 120.369L26.6195 118.673C27.2543 118.036 28.2207 117.863 29.0375 118.239C29.7091 118.545 30.3872 118.829 31.0827 119.106C31.9343 119.407 32.5018 120.213 32.4997 121.117V123.5C32.4997 127.09 35.4095 130 38.9997 130H47.6663C51.2566 130 54.1663 127.09 54.1663 123.5V121.117C54.164 120.22 54.7231 119.418 55.5661 119.11C56.2595 118.846 56.9377 118.562 57.6093 118.257C58.4261 117.88 59.3925 118.053 60.0272 118.69L61.7282 120.389C64.2718 122.908 68.3734 122.904 70.9127 120.378L77.0357 114.255C79.562 111.713 79.562 107.61 77.0357 105.068L75.3391 103.37C74.7 102.735 74.5266 101.768 74.9056 100.952C75.2111 100.28 75.495 99.6019 75.7722 98.9064C76.0777 98.0591 76.8838 97.498 77.7829 97.5003H80.1663C83.7566 97.5003 86.6663 94.5905 86.6663 91.0003V82.3337C86.6666 78.7432 83.7568 75.8334 80.1666 75.8334ZM82.3334 91C82.3334 92.1959 81.3627 93.1666 80.1668 93.1666H77.7834C75.0902 93.1775 72.6786 94.8414 71.7168 97.3568C71.4871 97.9634 71.238 98.5616 70.9716 99.1486C69.858 101.608 70.3737 104.498 72.2716 106.42L73.9659 108.117C74.8132 108.962 74.8132 110.333 73.9682 111.18L73.9659 111.183L67.843 117.305C66.998 118.15 65.6264 118.15 64.7794 117.305L63.0807 115.609C61.1609 113.711 58.2684 113.193 55.8094 114.309C55.2221 114.575 54.6241 114.825 54.0219 115.054C51.5084 116.016 49.8446 118.425 49.8337 121.116V123.5C49.8337 124.696 48.863 125.666 47.6671 125.666H39C37.8041 125.666 36.8334 124.696 36.8334 123.5V121.116C36.8225 118.423 35.1587 116.012 32.6432 115.05C32.0366 114.82 31.4384 114.571 30.8514 114.305C28.3923 113.191 25.5018 113.709 23.58 115.605L21.8834 117.299C21.0384 118.146 19.6668 118.146 18.8198 117.301L18.8175 117.299L12.6946 111.182C11.8496 110.337 11.8496 108.964 12.6946 108.119L14.3912 106.42C16.2891 104.498 16.8048 101.608 15.6912 99.1486C15.4246 98.5614 15.1755 97.9634 14.9459 97.3611C13.9862 94.8457 11.5769 93.1773 8.88367 93.1664H6.5C5.3041 93.1664 4.33342 92.1957 4.33342 90.9998V82.3332C4.33342 81.1373 5.3041 80.1666 6.5 80.1666H8.88342C11.5766 80.1557 13.9882 78.4918 14.95 75.9764C15.1798 75.3698 15.4289 74.7716 15.6952 74.1846C16.8088 71.7255 16.2932 68.835 14.3952 66.9132L12.6923 65.2166C11.845 64.3716 11.845 63 12.69 62.153L12.6923 62.1507L18.8152 56.0277C19.6625 55.1827 21.0318 55.1827 21.8788 56.0277L23.5775 57.7243C25.4973 59.6223 28.3898 60.1402 30.8488 59.0243C31.4361 58.7577 32.0341 58.5086 32.6363 58.2791C35.1541 57.3194 36.8202 54.91 36.8332 52.2169V49.8334C36.8332 48.6375 37.8038 47.6669 38.9997 47.6669H47.6663C48.8622 47.6669 49.8329 48.6375 49.8329 49.8334V52.2169C49.8438 54.91 51.5077 57.3216 54.0231 58.2834C54.6297 58.5132 55.2279 58.7623 55.8149 59.0286C58.274 60.1446 61.1665 59.6266 63.0863 57.7286L64.7829 56.0343C65.6322 55.1936 66.9995 55.1936 67.8488 56.0343L73.9718 62.1573C74.8168 63.0023 74.8168 64.3759 73.9718 65.2209L72.2752 66.9195C70.3772 68.8414 69.8615 71.7318 70.9752 74.1909C71.2418 74.7782 71.4909 75.3762 71.7204 75.9784C72.6824 78.4918 75.0918 80.1557 77.7827 80.1666H80.1661C81.362 80.1666 82.3327 81.1373 82.3327 82.3332L82.3334 91Z" fill="#A239CA"/>
<path d="M62.79 85.8C62.7684 85.28 62.7316 84.7623 62.6686 84.2466C62.5993 83.6919 62.5171 83.1417 62.402 82.6021C62.3261 82.2489 62.2266 81.9 62.1311 81.5491C62.0098 81.1028 61.8734 80.663 61.7216 80.2296C61.6154 79.9285 61.505 79.6294 61.3923 79.3325C61.1127 78.6391 60.7943 77.9609 60.4368 77.3046C60.4086 77.2548 60.3914 77.2005 60.3632 77.1507C59.7998 76.1475 59.1477 75.1964 58.4132 74.3103C58.3505 74.2323 58.2789 74.1587 58.2139 74.0828C57.9148 73.7296 57.6073 73.3873 57.2843 73.06C57.1152 72.8846 56.9377 72.7198 56.76 72.551C56.5434 72.3494 56.3266 72.15 56.11 71.9594C55.8477 71.7319 55.5791 71.511 55.3061 71.2964L54.9509 71.0321C51.5991 68.521 47.5214 67.1646 43.3332 67.1669C43.1166 67.1669 42.8998 67.1994 42.6832 67.208C42.2216 67.221 41.7579 67.2471 41.2923 67.2946C41.0475 67.3205 40.8005 67.3487 40.5557 67.3835C39.8493 67.4766 39.1496 67.6066 38.4561 67.7757C28.0236 70.471 21.7511 81.1137 24.4464 91.5485C26.2229 98.4233 31.5941 103.79 38.4711 105.56C38.5059 105.56 38.5427 105.571 38.5795 105.58C39.327 105.766 40.0855 105.911 40.8502 106.013C41.355 106.076 41.86 106.089 42.3668 106.113C42.7048 106.13 43.0168 106.18 43.37 106.18C43.9875 106.18 44.6289 106.139 45.2832 106.074C45.3525 106.074 45.4218 106.055 45.4998 106.046C46.0264 105.988 46.5593 105.909 47.1032 105.801C47.3198 105.76 47.5214 105.706 47.7293 105.658C48.1107 105.569 48.4898 105.476 48.8798 105.362C49.1832 105.271 49.4777 105.164 49.7745 105.06C50.0713 104.956 50.3791 104.844 50.6868 104.727C50.9945 104.61 51.2523 104.475 51.5318 104.345C51.8959 104.179 52.2577 104.014 52.6152 103.819H52.6282C54.6498 102.735 56.5173 101.388 58.1814 99.8083C58.6298 99.3881 59.022 98.9113 59.3427 98.3869C61.035 95.6765 62.1443 92.6431 62.6057 89.4819C62.6664 89.0638 62.7204 88.6456 62.7529 88.2188C62.7832 87.8265 62.805 87.4365 62.8136 87.0465C62.8136 86.9231 62.8309 86.806 62.8309 86.6824C62.8334 86.3764 62.803 86.0948 62.79 85.8ZM39.5266 71.9766C40.7702 71.6625 42.0507 71.5021 43.3334 71.5C43.9532 71.5044 44.5707 71.5455 45.1859 71.6257C45.3507 71.6453 45.5132 71.6755 45.6757 71.6994C46.1437 71.773 46.6073 71.8662 47.0646 71.9832C47.2141 72.0223 47.3637 72.0569 47.5109 72.098C48.6637 72.4296 49.773 72.8975 50.815 73.4889C50.9818 73.5864 51.1443 73.6882 51.3091 73.79C51.6514 74.0066 51.983 74.2234 52.31 74.4702C52.4855 74.598 52.6632 74.7236 52.8323 74.8602C53.2571 75.2005 53.6644 75.5623 54.0521 75.9437C54.2059 76.0996 54.3469 76.2709 54.4962 76.4334C54.7452 76.7044 54.988 76.9816 55.2198 77.2741C55.38 77.4757 55.5339 77.6837 55.6857 77.8939C55.9023 78.206 56.1191 78.531 56.3141 78.8603C56.4226 79.04 56.5307 79.2155 56.6414 79.3998C56.921 79.9132 57.17 80.4441 57.3866 80.988C57.4732 81.2046 57.5468 81.4214 57.625 81.638C57.766 82.0367 57.8873 82.4396 57.9935 82.8471C58.0476 83.0637 58.1082 83.2567 58.1537 83.4669C58.2794 84.0519 58.3725 84.6455 58.4289 85.2415C58.4419 85.3996 58.4419 85.5598 58.4528 85.718C58.483 86.2164 58.4919 86.7169 58.4723 87.2196C58.4723 87.3994 58.4571 87.5794 58.4464 87.7569C58.4073 88.2812 58.3403 88.8055 58.2514 89.3321C57.4412 93.8367 54.6439 97.7367 50.6378 99.9487C50.3692 100.09 50.1049 100.222 49.8405 100.343L49.6608 100.43C48.4019 101.002 47.0737 101.402 45.7087 101.626C45.6135 101.641 45.516 101.658 45.4185 101.671C45.1476 101.71 44.8812 101.743 44.6169 101.766C44.2681 101.796 43.9172 101.814 43.5597 101.82C43.4081 101.82 43.2585 101.82 43.1069 101.82C42.5935 101.814 42.0822 101.783 41.5728 101.725L41.3128 101.695C40.7169 101.617 40.1256 101.506 39.5426 101.361C31.4285 99.2835 26.534 91.0219 28.6097 82.9078C29.9813 77.5453 34.1672 73.3571 39.5274 71.9792L39.5266 71.9766Z" fill="#A239CA"/>
<path d="M123.5 45.5H116.686C115.778 45.5086 114.963 44.9366 114.667 44.0786C113.995 42.0659 113.183 40.1027 112.233 38.2048C111.83 37.3857 111.999 36.4 112.649 35.7586L117.481 30.9205C120.016 28.3832 120.016 24.2689 117.481 21.7316L108.268 12.5341C105.731 9.99908 101.617 9.99908 99.0793 12.5341L94.25 17.3616C93.6109 18.0116 92.625 18.1807 91.8059 17.7798C89.9079 16.8264 87.945 16.0096 85.93 15.3337C85.0677 15.0389 84.4914 14.2243 84.5 13.3143V6.5C84.5 2.90977 81.5902 0 78 0H65C61.4098 0 58.5 2.90977 58.5 6.5V13.3141C58.5086 14.2218 57.9366 15.0366 57.0786 15.3334C55.0659 16.0093 53.1027 16.8261 51.2048 17.7775C50.3857 18.1805 49.3977 18.0136 48.7586 17.3616L43.9204 12.53C41.3788 10.0016 37.2732 10.0016 34.7316 12.53L25.5364 21.7252C22.9991 24.2625 22.9991 28.3791 25.5364 30.9161L32.6409 38.0336C33.5011 38.8657 34.8725 38.8439 35.7045 37.9859C36.517 37.1475 36.5193 35.817 35.7089 34.9743L28.6 27.8591C27.755 27.0118 27.755 25.6425 28.6 24.7955L37.7952 15.6003C38.6402 14.7553 40.0138 14.7553 40.8588 15.6003L45.6991 20.4318C47.6577 22.4014 50.6586 22.8952 53.1438 21.6539C54.8597 20.7937 56.6343 20.0571 58.4543 19.4462C61.0802 18.5578 62.8441 16.0878 62.8332 13.3146V6.5C62.8332 5.3041 63.8038 4.33342 64.9997 4.33342H77.9997C79.1956 4.33342 80.1663 5.3041 80.1663 6.5V13.3141C80.1554 16.0875 81.919 18.5552 84.5452 19.4436C86.3652 20.0545 88.1418 20.7934 89.8579 21.6536C92.3432 22.8886 95.3395 22.3945 97.3004 20.4296L102.141 15.6C102.986 14.755 104.359 14.755 105.204 15.6L114.399 24.7975C115.244 25.6425 115.244 27.0141 114.399 27.8591L109.568 32.6993C107.601 34.658 107.107 37.6589 108.346 40.1441C109.206 41.86 109.943 43.6346 110.554 45.4546C111.442 48.0805 113.912 49.8464 116.685 49.8334H123.5C124.696 49.8334 125.667 50.8041 125.667 52V65C125.667 66.1959 124.696 67.1666 123.5 67.1666H116.686C113.912 67.1557 111.445 68.9193 110.556 71.5455C109.945 73.3655 109.207 75.142 108.346 76.8582C107.109 79.3434 107.603 82.3421 109.57 84.3007L114.402 89.1409C115.247 89.9859 115.247 91.3595 114.402 92.2045L105.202 101.4C104.357 102.245 102.986 102.245 102.141 101.4L95.0208 94.2952C94.1888 93.435 92.8175 93.4134 91.9572 94.2454C91.097 95.0775 91.0754 96.4488 91.9074 97.3091C91.9247 97.3263 91.9422 97.3439 91.9615 97.3611L99.079 104.466C101.616 107.001 105.731 107.001 108.268 104.466L117.463 95.2725C120 92.7332 120 88.6209 117.463 86.0816L112.638 81.25C111.988 80.6109 111.819 79.625 112.22 78.8059C113.174 76.908 113.99 74.945 114.666 72.93C114.961 72.0677 115.776 71.4914 116.686 71.5H123.5C127.09 71.5 130 68.5902 130 65V52C130 48.4098 127.09 45.5 123.5 45.5Z" fill="#A239CA"/>
<path d="M91.4159 38.5841C80.4093 27.6014 62.5907 27.6014 51.5839 38.5841C50.7518 39.4443 50.7757 40.8157 51.6379 41.6477C52.4786 42.4579 53.8088 42.4579 54.6475 41.6477C63.8927 32.2791 78.9834 32.1773 88.3523 41.4225C97.7212 50.6677 97.8227 65.7584 88.5775 75.1273C88.5016 75.2032 88.4279 75.2789 88.3523 75.3525C87.492 76.1845 87.4682 77.5559 88.3002 78.4161C89.1323 79.2764 90.5036 79.3002 91.3639 78.4682C91.3811 78.4509 91.3986 78.4334 91.4159 78.4161C102.399 67.4093 102.399 49.5907 91.4159 38.5841Z" fill="#A239CA"/>
</svg>
