<svg width="130" height="130" viewBox="0 0 130 130" fill="none" xmlns="http://www.w3.org/2000/svg">
<path fill-rule="evenodd" clip-rule="evenodd" d="M33.9679 43.2454C35.2999 43.6858 36.7361 42.9637 37.1755 41.6317C41.1616 29.5761 52.3761 21.4769 65.0823 21.4769C81.2857 21.4769 94.469 34.6592 94.469 50.8636C94.469 63.3873 88.8593 70.8696 84.3524 76.882C81.0735 81.255 78.2418 85.0328 78.2418 89.614C78.2418 89.9156 78.2379 90.2141 78.2309 90.5106H67.6214V84.6777C67.6214 83.2753 66.4848 82.1387 65.0823 82.1387C63.6799 82.1387 62.5433 83.2753 62.5433 84.6777V90.5106H51.9328C51.9258 90.2141 51.9219 89.9156 51.9219 89.614C51.9219 85.0318 49.0902 81.255 45.8112 76.881C42.4916 72.4526 38.7296 67.4329 36.864 60.3008C36.509 58.9439 35.1204 58.1316 33.7646 58.4867C32.4088 58.8408 31.5965 60.2293 31.9515 61.5852C34.0691 69.6814 38.327 75.3626 41.7487 79.9269C44.5953 83.7246 46.8437 86.7239 46.8437 89.614C46.8437 90.83 46.8953 92.0162 46.9955 93.1479V114.625C46.9955 114.693 47.0004 114.76 47.0054 114.826C47.0074 114.842 47.0064 114.859 47.0084 114.875C47.0173 114.969 47.0322 115.06 47.051 115.151V115.153C47.9328 119.289 50.1901 123.05 53.4096 125.743C56.6905 128.488 60.8363 130 65.0823 130C69.3283 130 73.4731 128.488 76.7551 125.743C79.9735 123.05 82.2319 119.289 83.1127 115.153C83.1127 115.152 83.1137 115.151 83.1137 115.15C83.1325 115.06 83.1464 114.969 83.1563 114.875C83.1573 114.859 83.1573 114.842 83.1583 114.826C83.1632 114.759 83.1682 114.692 83.1682 114.624V93.1479C83.2684 92.0162 83.3209 90.83 83.3209 89.614C83.3209 86.7239 85.5694 83.7246 88.4159 79.9269C93.1132 73.6606 99.5471 65.0793 99.5471 50.8636C99.5471 31.8593 84.0856 16.3988 65.0823 16.3988C50.1812 16.3988 37.0297 25.8984 32.3542 40.0378C31.9138 41.3689 32.6369 42.805 33.9679 43.2454ZM65.0823 124.922C59.9199 124.922 55.2643 121.8 53.0585 117.163H77.1062C74.8994 121.8 70.2438 124.922 65.0823 124.922ZM78.0911 112.085H52.0736V106.376H78.0911V112.085ZM78.0911 101.298H52.0736V95.5888H78.0911V101.298Z" fill="#A239CA"/>
<path fill-rule="evenodd" clip-rule="evenodd" d="M65.0823 11.8433C66.4848 11.8433 67.6214 10.7067 67.6214 9.30428V2.53906C67.6214 1.13663 66.4848 0 65.0823 0C63.6799 0 62.5433 1.13663 62.5433 2.53906V9.30428C62.5433 10.7067 63.6799 11.8433 65.0823 11.8433Z" fill="#A239CA"/>
<path fill-rule="evenodd" clip-rule="evenodd" d="M16.7578 53.4026H23.523C24.9255 53.4026 26.0621 52.266 26.0621 50.8635C26.0621 49.4611 24.9255 48.3245 23.523 48.3245H16.7578C15.3554 48.3245 14.2188 49.4611 14.2188 50.8635C14.2188 52.266 15.3554 53.4026 16.7578 53.4026Z" fill="#A239CA"/>
<path fill-rule="evenodd" clip-rule="evenodd" d="M76.7075 55.9933C76.7075 54.5909 75.5708 53.4542 74.1684 53.4542H55.9962C54.5938 53.4542 53.4572 54.5909 53.4572 55.9933C53.4572 57.3957 54.5938 58.5323 55.9962 58.5323H62.5433V64.3652C62.5433 65.7677 63.6799 66.9043 65.0823 66.9043C66.4848 66.9043 67.6214 65.7677 67.6214 64.3652V58.5323H74.1684C75.5708 58.5323 76.7075 57.3957 76.7075 55.9933Z" fill="#A239CA"/>
<path fill-rule="evenodd" clip-rule="evenodd" d="M33.9004 23.2721C34.3963 23.768 35.046 24.0159 35.6956 24.0159C36.3453 24.0159 36.9949 23.768 37.4908 23.2721C38.4827 22.2803 38.4827 20.6725 37.4908 19.6817L32.7073 14.8981C31.7155 13.9063 30.1077 13.9063 29.1159 14.8981C28.1251 15.889 28.1251 17.4967 29.1159 18.4885L33.9004 23.2721Z" fill="#A239CA"/>
<path fill-rule="evenodd" clip-rule="evenodd" d="M29.1605 89.3244C29.8102 89.3244 30.4598 89.0765 30.9557 88.5806L35.7393 83.797C36.7311 82.8052 36.7311 81.1984 35.7393 80.2066C34.7475 79.2148 33.1397 79.2148 32.1489 80.2066L27.3643 84.9902C26.3735 85.982 26.3735 87.5897 27.3643 88.5806C27.8602 89.0765 28.5099 89.3244 29.1605 89.3244Z" fill="#A239CA"/>
<path fill-rule="evenodd" clip-rule="evenodd" d="M94.469 24.016C95.1186 24.016 95.7683 23.768 96.2642 23.2721L101.048 18.4885C102.04 17.4967 102.04 15.889 101.048 14.8971C100.057 13.9053 98.4492 13.9063 97.4573 14.8971L92.6738 19.6807C91.682 20.6725 91.682 22.2803 92.6728 23.2721C93.1687 23.768 93.8194 24.016 94.469 24.016Z" fill="#A239CA"/>
<path fill-rule="evenodd" clip-rule="evenodd" d="M94.4254 80.2066C93.4335 81.1974 93.4335 82.8052 94.4254 83.797L99.2089 88.5806C99.7048 89.0765 100.354 89.3244 101.004 89.3244C101.654 89.3244 102.303 89.0765 102.799 88.5806C103.791 87.5897 103.791 85.982 102.799 84.9902L98.0157 80.2066C97.0239 79.2148 95.4162 79.2148 94.4254 80.2066Z" fill="#A239CA"/>
<path fill-rule="evenodd" clip-rule="evenodd" d="M106.642 53.4026H113.407C114.809 53.4026 115.946 52.266 115.946 50.8635C115.946 49.4611 114.809 48.3245 113.407 48.3245H106.642C105.239 48.3245 104.103 49.4611 104.103 50.8635C104.103 52.266 105.239 53.4026 106.642 53.4026Z" fill="#A239CA"/>
<path fill-rule="evenodd" clip-rule="evenodd" d="M65.0823 71.9824C63.6839 71.9824 62.5433 73.123 62.5433 74.5215C62.5433 75.92 63.6839 77.0605 65.0823 77.0605C66.4808 77.0605 67.6214 75.92 67.6214 74.5215C67.6214 73.123 66.4808 71.9824 65.0823 71.9824Z" fill="#A239CA"/>
<path fill-rule="evenodd" clip-rule="evenodd" d="M35.6956 50.8635C35.6956 49.4651 34.5551 48.3245 33.1566 48.3245C31.7571 48.3245 30.6175 49.4651 30.6175 50.8635C30.6175 52.262 31.7571 53.4026 33.1566 53.4026C34.5551 53.4026 35.6956 52.262 35.6956 50.8635Z" fill="#A239CA"/>
</svg>
