<svg width="695" height="291" viewBox="0 0 695 291" fill="none" xmlns="http://www.w3.org/2000/svg">
<path d="M129.053 117.269C127.209 116.051 125.612 114.495 124.346 112.684C121.621 115.617 118.81 118.54 115.955 121.397C96.1055 141.261 74.9655 157.492 56.4289 167.101C45.0331 173.009 35.3349 175.996 27.8941 175.996C22.8145 175.996 18.788 174.604 15.987 171.802C9.31609 165.127 10.6646 151.424 19.7587 133.166C18.482 130.668 17.3381 128.104 16.3319 125.485C10.3552 136.462 6.74944 146.244 5.60823 154.589C4.32123 164.002 6.25057 171.359 11.3421 176.454C22.7847 187.905 43.234 181.172 58.3741 173.51C77.4041 163.878 100.084 146.579 120.6 126.049C123.463 123.183 126.296 120.237 129.053 117.269Z" fill="#A239CA"/>
<path d="M125.08 102.737C125.082 105.412 125.877 108.026 127.365 110.249C128.852 112.472 130.965 114.204 133.437 115.226C135.908 116.249 138.628 116.515 141.251 115.992C143.874 115.469 146.283 114.18 148.173 112.288C150.064 110.396 151.351 107.986 151.872 105.362C152.393 102.739 152.125 100.02 151.101 97.5488C150.076 95.078 148.343 92.9662 146.119 91.4805C143.894 89.9948 141.28 89.2019 138.605 89.2021C135.018 89.2076 131.58 90.6358 129.044 93.1732C126.509 95.7106 125.083 99.1502 125.08 102.737Z" fill="#A239CA"/>
<path d="M148.519 11.0602C140.319 12.2899 130.769 15.8628 120.097 21.6771C122.707 22.6885 125.262 23.8374 127.75 25.1189C145.977 16.0353 159.657 14.6922 166.324 21.3643C176.199 31.2457 168.32 56.2463 145.783 86.9096C147.794 87.8291 149.615 89.1187 151.15 90.7111C162.648 75.0698 170.715 60.3738 174.525 48.0974C178.896 34.0065 177.701 23.4468 170.968 16.7101C165.769 11.506 158.215 9.60493 148.519 11.0602Z" fill="#A239CA"/>
<path d="M145.138 42.5588C139.776 37.1818 133.645 32.6318 126.945 29.058C126.858 29.0207 126.774 28.977 126.693 28.9273C122.953 26.9526 119.053 25.2965 115.034 23.9766C114.878 23.9475 114.726 23.8993 114.582 23.8331C101.203 19.5446 86.9026 19.0233 73.2477 22.3265C59.5928 25.6297 47.1114 32.6297 37.1725 42.5588C7.40522 72.3473 7.40522 120.817 37.1725 150.605C42.3326 155.776 48.2075 160.18 54.6178 163.684L54.6491 163.668C72.8423 154.236 93.6431 138.252 113.22 118.663C116.357 115.524 119.442 112.304 122.414 109.078C121.379 106.441 121.005 103.591 121.322 100.777C121.64 97.9622 122.64 95.2676 124.235 92.9274C125.831 90.5872 127.974 88.6721 130.479 87.3487C132.983 86.0252 135.772 85.3334 138.605 85.3334C139.711 85.3334 140.815 85.4406 141.9 85.6536C148.643 76.5719 154.124 67.8893 158.2 60.0017C154.702 53.5935 150.303 47.7196 145.138 42.5588ZM32.1046 76.435C28.135 88.0894 27.698 100.657 30.8485 112.559C30.915 112.805 30.9321 113.062 30.8989 113.315C30.8658 113.568 30.7829 113.811 30.6552 114.032C30.5275 114.253 30.3574 114.446 30.1547 114.6C29.9521 114.755 29.7208 114.868 29.4743 114.933C29.2278 114.998 28.9708 115.014 28.7183 114.979C28.4657 114.944 28.2225 114.86 28.0027 114.731C27.7828 114.602 27.5907 114.43 27.4373 114.227C27.2839 114.023 27.1723 113.791 27.1089 113.544C23.7643 100.907 24.2284 87.5642 28.4431 75.1905C28.5241 74.9492 28.6519 74.7262 28.8193 74.5345C28.9867 74.3427 29.1902 74.1858 29.4184 74.0729C29.6465 73.9599 29.8947 73.8932 30.1486 73.8764C30.4026 73.8596 30.6574 73.8931 30.8984 73.975C31.1394 74.0569 31.3619 74.1856 31.5531 74.3537C31.7442 74.5218 31.9003 74.726 32.0123 74.9545C32.1244 75.1831 32.1902 75.4315 32.2061 75.6855C32.2219 75.9396 32.1874 76.1943 32.1046 76.435ZM47.0497 143.453C46.6871 143.816 46.1953 144.02 45.6825 144.02C45.1696 144.02 44.6778 143.816 44.3152 143.453C40.6087 139.747 37.3526 135.616 34.6148 131.146C34.4823 130.929 34.3937 130.689 34.3542 130.438C34.3147 130.187 34.325 129.931 34.3845 129.684C34.4439 129.437 34.5515 129.204 34.7009 128.999C34.8503 128.794 35.0387 128.62 35.2554 128.487C35.472 128.355 35.7126 128.266 35.9634 128.227C36.2143 128.187 36.4704 128.198 36.7173 128.257C36.9641 128.317 37.1969 128.424 37.4022 128.574C37.6075 128.723 37.7814 128.911 37.9139 129.128C40.4927 133.338 43.5596 137.229 47.0509 140.72C47.4133 141.082 47.6168 141.574 47.6166 142.087C47.6164 142.6 47.4125 143.092 47.0497 143.454V143.453Z" fill="#A239CA"/>
<path d="M164.982 77.1086C161.656 82.5525 157.846 88.1769 153.591 93.9127C154.08 94.7371 154.499 95.6011 154.843 96.4956C156.043 99.6127 156.319 103.009 155.64 106.279C154.961 109.549 153.355 112.555 151.014 114.937C148.673 117.319 145.696 118.977 142.438 119.712C139.18 120.448 135.78 120.23 132.642 119.085C129.617 122.363 126.493 125.621 123.335 128.782C106.281 145.848 88.3455 160.296 71.7104 170.466C84.6238 173.86 98.2014 173.81 111.09 170.321C123.978 166.832 135.726 160.025 145.163 150.579C154.6 141.134 161.396 129.379 164.873 116.488C168.351 103.597 168.388 90.0189 164.982 77.1086Z" fill="#A239CA"/>
<path d="M11.9005 25.4333C13.6603 26.0252 15.2591 27.0166 16.5714 28.3299C17.8838 29.6432 18.8741 31.2427 19.4647 33.003C19.5929 33.3881 19.8391 33.7232 20.1684 33.9606C20.4977 34.198 20.8933 34.3258 21.2993 34.3258C21.7052 34.3258 22.1009 34.198 22.4302 33.9606C22.7595 33.7232 23.0057 33.3881 23.1339 33.003C23.7245 31.2428 24.7148 29.6433 26.0272 28.33C27.3396 27.0167 28.9383 26.0252 30.6981 25.4333C31.0831 25.305 31.418 25.0588 31.6553 24.7296C31.8926 24.4003 32.0203 24.0048 32.0203 23.5989C32.0203 23.1931 31.8926 22.7975 31.6553 22.4683C31.418 22.1391 31.0831 21.8928 30.6981 21.7645C28.9383 21.1726 27.3396 20.181 26.0272 18.8676C24.7148 17.5543 23.7245 15.9547 23.1339 14.1945C23.0057 13.8093 22.7595 13.4743 22.4302 13.2369C22.1009 12.9995 21.7052 12.8717 21.2993 12.8717C20.8933 12.8717 20.4977 12.9995 20.1684 13.2369C19.8391 13.4743 19.5929 13.8093 19.4647 14.1945C18.874 15.9547 17.8837 17.5542 16.5713 18.8676C15.259 20.1809 13.6602 21.1725 11.9005 21.7645C11.5155 21.8928 11.1806 22.1391 10.9433 22.4683C10.7059 22.7975 10.5782 23.1931 10.5782 23.5989C10.5782 24.0048 10.7059 24.4003 10.9433 24.7296C11.1806 25.0588 11.5155 25.305 11.9005 25.4333Z" fill="#A239CA"/>
<path d="M166.456 169.929C164.696 169.337 163.098 168.346 161.785 167.032C160.473 165.719 159.482 164.119 158.892 162.359C158.764 161.974 158.518 161.639 158.188 161.401C157.859 161.164 157.463 161.036 157.057 161.036C156.651 161.036 156.256 161.164 155.926 161.401C155.597 161.639 155.351 161.974 155.223 162.359C154.632 164.119 153.642 165.719 152.33 167.032C151.017 168.346 149.418 169.337 147.659 169.929C147.274 170.057 146.939 170.304 146.702 170.633C146.465 170.962 146.337 171.357 146.337 171.763C146.337 172.169 146.465 172.564 146.702 172.893C146.939 173.223 147.274 173.469 147.659 173.597C149.418 174.189 151.017 175.181 152.329 176.494C153.642 177.808 154.632 179.407 155.223 181.167C155.351 181.552 155.597 181.887 155.926 182.125C156.256 182.362 156.651 182.49 157.057 182.49C157.463 182.49 157.859 182.362 158.188 182.125C158.518 181.887 158.764 181.552 158.892 181.167C159.483 179.407 160.473 177.808 161.785 176.494C163.098 175.181 164.696 174.189 166.456 173.597C166.841 173.469 167.176 173.223 167.413 172.893C167.65 172.564 167.778 172.169 167.778 171.763C167.778 171.357 167.65 170.962 167.413 170.633C167.176 170.304 166.841 170.057 166.456 169.929Z" fill="#A239CA"/>
<path d="M136.847 187.416C136.03 187.416 135.231 187.658 134.551 188.111C133.871 188.565 133.341 189.21 133.028 189.965C132.715 190.72 132.633 191.551 132.793 192.353C132.952 193.155 133.345 193.891 133.923 194.469C134.501 195.047 135.237 195.441 136.039 195.601C136.84 195.76 137.671 195.678 138.427 195.366C139.182 195.053 139.827 194.523 140.281 193.844C140.735 193.164 140.978 192.365 140.978 191.548C140.977 190.452 140.541 189.402 139.767 188.628C138.993 187.853 137.943 187.417 136.847 187.416Z" fill="#A239CA"/>
<path d="M48.7151 6.4524C48.7148 5.63549 48.4724 4.83699 48.0184 4.15787C47.5643 3.47875 46.9191 2.94951 46.1643 2.63706C45.4095 2.32462 44.579 2.24301 43.7778 2.40255C42.9767 2.56209 42.2408 2.95562 41.6632 3.53337C41.0857 4.11112 40.6925 4.84715 40.5332 5.64839C40.374 6.44963 40.4559 7.2801 40.7686 8.03478C41.0813 8.78947 41.6108 9.43448 42.2901 9.88825C42.9694 10.342 43.768 10.5842 44.5849 10.5841C45.6801 10.5827 46.73 10.1469 47.5043 9.37228C48.2786 8.5977 48.714 7.54761 48.7151 6.4524Z" fill="#A239CA"/>
<path d="M180.322 3.05083C179.96 3.41344 179.756 3.90526 179.756 4.41807C179.756 4.93089 179.96 5.4227 180.322 5.78531C185.902 11.3688 188.791 18.9419 188.912 28.215C188.917 28.7275 189.122 29.2178 189.483 29.5815C189.844 29.9452 190.333 30.1537 190.846 30.1625H190.871C191.389 30.1492 191.88 29.9317 192.238 29.5573C192.595 29.183 192.79 28.6823 192.78 28.1647C192.646 17.8475 189.377 9.3702 183.058 3.05044C182.879 2.87069 182.665 2.7281 182.431 2.63082C182.196 2.53355 181.944 2.4835 181.69 2.48354C181.436 2.48357 181.185 2.53369 180.95 2.63103C180.715 2.72837 180.502 2.87102 180.322 3.05083Z" fill="#A239CA"/>
<path d="M189.186 42.8036C188.939 42.7424 188.683 42.7303 188.432 42.7681C188.181 42.8059 187.94 42.8928 187.722 43.0238C187.505 43.1549 187.315 43.3275 187.164 43.5318C187.013 43.7362 186.904 43.9682 186.843 44.2147C186.297 46.419 185.633 48.7146 184.873 51.0388C184.786 51.282 184.749 51.5401 184.763 51.798C184.778 52.0559 184.844 52.3082 184.957 52.5402C185.071 52.7721 185.23 52.9789 185.425 53.1484C185.62 53.3179 185.846 53.4467 186.092 53.5271C186.337 53.6074 186.596 53.6378 186.854 53.6164C187.111 53.595 187.362 53.5223 187.59 53.4025C187.819 53.2827 188.022 53.1183 188.186 52.9189C188.35 52.7196 188.473 52.4894 188.547 52.2418C189.337 49.8283 190.026 47.4407 190.596 45.1459C190.72 44.6483 190.641 44.122 190.376 43.6827C190.112 43.2435 189.683 42.9272 189.186 42.8036Z" fill="#A239CA"/>
<path d="M220.342 176H195.062C194.048 176 193.302 175.787 192.822 175.36C192.395 174.88 192.182 174.133 192.182 173.12V163.76C192.182 162.747 192.395 162.027 192.822 161.6C193.302 161.12 194.048 160.88 195.062 160.88H216.582C217.275 160.88 217.782 160.667 218.102 160.24C218.475 159.76 218.662 159.2 218.662 158.56C218.662 157.653 218.475 156.987 218.102 156.56C217.782 156.133 217.275 155.893 216.582 155.84L204.582 154.16C200.848 153.627 197.835 152.4 195.542 150.48C193.302 148.56 192.182 145.36 192.182 140.88V132.48C192.182 127.947 193.648 124.48 196.582 122.08C199.515 119.627 203.568 118.4 208.742 118.4H231.142C232.155 118.4 232.875 118.64 233.302 119.12C233.782 119.547 234.022 120.267 234.022 121.28V130.8C234.022 131.813 233.782 132.56 233.302 133.04C232.875 133.467 232.155 133.68 231.142 133.68H212.502C211.808 133.68 211.275 133.92 210.902 134.4C210.528 134.827 210.342 135.387 210.342 136.08C210.342 136.773 210.528 137.36 210.902 137.84C211.275 138.32 211.808 138.587 212.502 138.64L224.422 140.24C228.155 140.773 231.168 142 233.462 143.92C235.755 145.84 236.902 149.04 236.902 153.52V161.92C236.902 166.453 235.408 169.947 232.422 172.4C229.488 174.8 225.462 176 220.342 176ZM266.533 135.2L262.773 147.36H275.333L271.573 135.2C271.359 134.72 271.119 134.373 270.853 134.16C270.639 133.947 270.373 133.84 270.053 133.84H268.053C267.733 133.84 267.439 133.947 267.173 134.16C266.959 134.373 266.746 134.72 266.533 135.2ZM261.973 173.12C261.973 174.133 261.733 174.88 261.253 175.36C260.826 175.787 260.106 176 259.093 176H247.333C246.319 176 245.573 175.787 245.093 175.36C244.666 174.88 244.453 174.133 244.453 173.12V152C244.453 150.4 244.693 148.56 245.173 146.48C245.706 144.4 246.506 141.973 247.573 139.2L254.533 121.04C254.853 120.133 255.333 119.467 255.973 119.04C256.666 118.613 257.546 118.4 258.613 118.4H280.133C281.146 118.4 281.973 118.613 282.613 119.04C283.306 119.467 283.813 120.133 284.133 121.04L291.093 139.2C292.159 141.973 292.933 144.4 293.413 146.48C293.946 148.56 294.213 150.4 294.213 152V173.12C294.213 174.133 293.973 174.88 293.493 175.36C293.066 175.787 292.346 176 291.333 176H279.253C278.186 176 277.386 175.787 276.853 175.36C276.373 174.88 276.133 174.133 276.133 173.12V161.92H261.973V173.12ZM328.087 176H315.127C314.114 176 313.367 175.787 312.887 175.36C312.461 174.88 312.247 174.133 312.247 173.12V133.84H300.487C299.474 133.84 298.727 133.627 298.247 133.2C297.821 132.72 297.607 131.973 297.607 130.96V121.28C297.607 120.267 297.821 119.547 298.247 119.12C298.727 118.64 299.474 118.4 300.487 118.4H342.727C343.741 118.4 344.461 118.64 344.887 119.12C345.367 119.547 345.607 120.267 345.607 121.28V130.96C345.607 131.973 345.367 132.72 344.887 133.2C344.461 133.627 343.741 133.84 342.727 133.84H330.967V173.12C330.967 174.133 330.727 174.88 330.247 175.36C329.821 175.787 329.101 176 328.087 176ZM402.427 160.88C402.427 163.333 402.054 165.573 401.307 167.6C400.614 169.573 399.334 171.28 397.467 172.72C395.654 174.107 393.147 175.2 389.947 176C386.747 176.8 382.667 177.2 377.707 177.2C372.747 177.2 368.667 176.8 365.467 176C362.267 175.2 359.734 174.107 357.867 172.72C356.054 171.28 354.774 169.573 354.027 167.6C353.334 165.573 352.987 163.333 352.987 160.88V121.28C352.987 120.267 353.201 119.547 353.627 119.12C354.107 118.64 354.854 118.4 355.867 118.4H368.427C369.441 118.4 370.161 118.64 370.587 119.12C371.067 119.547 371.307 120.267 371.307 121.28V157.76C371.307 158.827 371.707 159.733 372.507 160.48C373.307 161.173 375.094 161.52 377.867 161.52C380.694 161.52 382.507 161.173 383.307 160.48C384.107 159.733 384.507 158.827 384.507 157.76V121.28C384.507 120.267 384.721 119.547 385.147 119.12C385.627 118.64 386.374 118.4 387.387 118.4H399.547C400.561 118.4 401.281 118.64 401.707 119.12C402.187 119.547 402.427 120.267 402.427 121.28V160.88ZM431.155 132.8V143.04H437.155C438.541 143.04 439.475 142.693 439.955 142C440.435 141.253 440.675 140.347 440.675 139.28V136.56C440.675 135.493 440.435 134.613 439.955 133.92C439.475 133.173 438.541 132.8 437.155 132.8H431.155ZM428.275 176H415.955C414.941 176 414.195 175.787 413.715 175.36C413.288 174.88 413.075 174.133 413.075 173.12V121.28C413.075 120.267 413.288 119.547 413.715 119.12C414.195 118.64 414.941 118.4 415.955 118.4H442.595C448.568 118.4 452.675 119.653 454.915 122.16C457.208 124.613 458.355 127.813 458.355 131.76V135.44C458.355 137.68 458.008 139.6 457.315 141.2C456.675 142.747 455.528 143.867 453.875 144.56C456.755 144.88 459.075 146.053 460.835 148.08C462.648 150.107 463.555 152.8 463.555 156.16V173.12C463.555 174.133 463.315 174.88 462.835 175.36C462.408 175.787 461.688 176 460.675 176H448.275C447.261 176 446.515 175.787 446.035 175.36C445.608 174.88 445.395 174.133 445.395 173.12V160.88C445.395 159.707 445.155 158.853 444.675 158.32C444.248 157.733 443.475 157.44 442.355 157.44H431.155V173.12C431.155 174.133 430.915 174.88 430.435 175.36C430.008 175.787 429.288 176 428.275 176ZM487.408 176H475.408C474.394 176 473.648 175.787 473.168 175.36C472.741 174.88 472.528 174.133 472.528 173.12V121.28C472.528 120.267 472.741 119.547 473.168 119.12C473.648 118.64 474.394 118.4 475.408 118.4H483.728C484.741 118.4 485.594 118.56 486.288 118.88C487.034 119.2 487.754 119.76 488.448 120.56L503.968 138.32V121.28C503.968 120.267 504.181 119.547 504.608 119.12C505.088 118.64 505.834 118.4 506.848 118.4H518.848C519.861 118.4 520.581 118.64 521.008 119.12C521.488 119.547 521.728 120.267 521.728 121.28V173.12C521.728 174.133 521.488 174.88 521.008 175.36C520.581 175.787 519.861 176 518.848 176H506.848C505.834 176 505.088 175.787 504.608 175.36C504.181 174.88 503.968 174.133 503.968 173.12V163.28L490.288 146.72V173.12C490.288 174.133 490.048 174.88 489.568 175.36C489.141 175.787 488.421 176 487.408 176ZM534.362 176C533.349 176 532.602 175.787 532.122 175.36C531.696 174.88 531.482 174.133 531.482 173.12V163.6C531.482 162.587 531.696 161.867 532.122 161.44C532.602 160.96 533.349 160.72 534.362 160.72H542.282V133.84H534.362C533.349 133.84 532.602 133.627 532.122 133.2C531.696 132.72 531.482 131.973 531.482 130.96V121.28C531.482 120.267 531.696 119.547 532.122 119.12C532.602 118.64 533.349 118.4 534.362 118.4H568.442C569.456 118.4 570.176 118.64 570.602 119.12C571.082 119.547 571.322 120.267 571.322 121.28V130.96C571.322 131.973 571.082 132.72 570.602 133.2C570.176 133.627 569.456 133.84 568.442 133.84H560.682V160.72H568.442C569.456 160.72 570.176 160.96 570.602 161.44C571.082 161.867 571.322 162.587 571.322 163.6V173.12C571.322 174.133 571.082 174.88 570.602 175.36C570.176 175.787 569.456 176 568.442 176H534.362ZM596.08 176H584.08C583.066 176 582.32 175.787 581.84 175.36C581.413 174.88 581.2 174.133 581.2 173.12V121.28C581.2 120.267 581.413 119.547 581.84 119.12C582.32 118.64 583.066 118.4 584.08 118.4H592.4C593.413 118.4 594.266 118.56 594.96 118.88C595.706 119.2 596.426 119.76 597.12 120.56L612.64 138.32V121.28C612.64 120.267 612.853 119.547 613.28 119.12C613.76 118.64 614.506 118.4 615.52 118.4H627.52C628.533 118.4 629.253 118.64 629.68 119.12C630.16 119.547 630.4 120.267 630.4 121.28V173.12C630.4 174.133 630.16 174.88 629.68 175.36C629.253 175.787 628.533 176 627.52 176H615.52C614.506 176 613.76 175.787 613.28 175.36C612.853 174.88 612.64 174.133 612.64 173.12V163.28L598.96 146.72V173.12C598.96 174.133 598.72 174.88 598.24 175.36C597.813 175.787 597.093 176 596.08 176ZM690.234 160.88C690.234 163.333 689.861 165.573 689.114 167.6C688.421 169.573 687.141 171.28 685.274 172.72C683.461 174.107 680.927 175.2 677.674 176C674.474 176.8 670.394 177.2 665.434 177.2C660.474 177.2 656.367 176.8 653.114 176C649.861 175.2 647.301 174.107 645.434 172.72C643.621 171.28 642.341 169.573 641.594 167.6C640.901 165.573 640.554 163.333 640.554 160.88V133.6C640.554 131.147 640.901 128.933 641.594 126.96C642.341 124.933 643.621 123.2 645.434 121.76C647.301 120.32 649.861 119.2 653.114 118.4C656.367 117.6 660.474 117.2 665.434 117.2C670.394 117.2 674.474 117.6 677.674 118.4C680.927 119.2 683.461 120.32 685.274 121.76C687.141 123.2 688.421 124.933 689.114 126.96C689.861 128.933 690.234 131.147 690.234 133.6V160.88ZM658.714 158C658.714 159.067 659.114 159.973 659.914 160.72C660.714 161.413 662.554 161.76 665.434 161.76C668.314 161.76 670.154 161.413 670.954 160.72C671.754 159.973 672.154 159.067 672.154 158V136.48C672.154 135.467 671.754 134.613 670.954 133.92C670.154 133.173 668.314 132.8 665.434 132.8C662.554 132.8 660.714 133.173 659.914 133.92C659.114 134.613 658.714 135.467 658.714 136.48V158Z" fill="white"/>
<path d="M83.3991 272H56.4391C55.4257 272 54.6791 271.787 54.1991 271.36C53.7724 270.88 53.5591 270.133 53.5591 269.12V217.28C53.5591 216.267 53.7724 215.547 54.1991 215.12C54.6791 214.64 55.4257 214.4 56.4391 214.4H83.3991C90.0657 214.4 94.9991 215.733 98.1991 218.4C101.452 221.067 103.079 225.173 103.079 230.72V255.68C103.079 261.227 101.452 265.333 98.1991 268C94.9991 270.667 90.0657 272 83.3991 272ZM71.7191 229.68V256.88H81.2391C82.5191 256.88 83.4524 256.56 84.0391 255.92C84.6791 255.28 84.9991 254.293 84.9991 252.96V233.52C84.9991 232.187 84.6791 231.227 84.0391 230.64C83.4524 230 82.5191 229.68 81.2391 229.68H71.7191ZM153.247 272H116.127C115.113 272 114.367 271.787 113.887 271.36C113.46 270.88 113.247 270.133 113.247 269.12V217.28C113.247 216.267 113.46 215.547 113.887 215.12C114.367 214.64 115.113 214.4 116.127 214.4H153.247C154.26 214.4 154.98 214.64 155.407 215.12C155.887 215.547 156.127 216.267 156.127 217.28V226.64C156.127 227.653 155.887 228.4 155.407 228.88C154.98 229.307 154.26 229.52 153.247 229.52H131.167V235.68H146.767C147.78 235.68 148.5 235.92 148.927 236.4C149.407 236.827 149.647 237.547 149.647 238.56V247.12C149.647 248.133 149.407 248.88 148.927 249.36C148.5 249.787 147.78 250 146.767 250H131.167V256.88H153.247C154.26 256.88 154.98 257.12 155.407 257.6C155.887 258.027 156.127 258.747 156.127 259.76V269.12C156.127 270.133 155.887 270.88 155.407 271.36C154.98 271.787 154.26 272 153.247 272ZM199.67 272H178.87C177.857 272 177.004 271.813 176.31 271.44C175.67 271.067 175.164 270.373 174.79 269.36L166.95 249.76C166.47 248.587 166.07 247.573 165.75 246.72C165.43 245.813 165.164 244.96 164.95 244.16C164.737 243.36 164.577 242.533 164.47 241.68C164.417 240.773 164.39 239.68 164.39 238.4V217.28C164.39 216.267 164.604 215.547 165.03 215.12C165.51 214.64 166.257 214.4 167.27 214.4H179.99C181.004 214.4 181.777 214.64 182.31 215.12C182.844 215.547 183.11 216.267 183.11 217.28V239.36C183.11 239.893 183.164 240.427 183.27 240.96C183.377 241.493 183.537 242.053 183.75 242.64L187.51 253.84C187.67 254.373 187.857 254.747 188.07 254.96C188.284 255.12 188.604 255.2 189.03 255.2H189.91C190.337 255.2 190.657 255.12 190.87 254.96C191.084 254.747 191.27 254.373 191.43 253.84L195.19 242.56C195.404 241.973 195.564 241.413 195.67 240.88C195.777 240.347 195.83 239.813 195.83 239.28V217.28C195.83 216.267 196.044 215.547 196.47 215.12C196.95 214.64 197.697 214.4 198.71 214.4H211.27C212.284 214.4 213.004 214.64 213.43 215.12C213.91 215.547 214.15 216.267 214.15 217.28V238.4C214.15 239.68 214.097 240.773 213.99 241.68C213.937 242.533 213.804 243.36 213.59 244.16C213.377 244.96 213.11 245.813 212.79 246.72C212.47 247.573 212.07 248.587 211.59 249.76L203.75 269.36C203.377 270.373 202.844 271.067 202.15 271.44C201.51 271.813 200.684 272 199.67 272ZM264.028 272H226.908C225.894 272 225.148 271.787 224.668 271.36C224.241 270.88 224.028 270.133 224.028 269.12V217.28C224.028 216.267 224.241 215.547 224.668 215.12C225.148 214.64 225.894 214.4 226.908 214.4H264.028C265.041 214.4 265.761 214.64 266.188 215.12C266.668 215.547 266.908 216.267 266.908 217.28V226.64C266.908 227.653 266.668 228.4 266.188 228.88C265.761 229.307 265.041 229.52 264.028 229.52H241.948V235.68H257.548C258.561 235.68 259.281 235.92 259.708 236.4C260.188 236.827 260.428 237.547 260.428 238.56V247.12C260.428 248.133 260.188 248.88 259.708 249.36C259.281 249.787 258.561 250 257.548 250H241.948V256.88H264.028C265.041 256.88 265.761 257.12 266.188 257.6C266.668 258.027 266.908 258.747 266.908 259.76V269.12C266.908 270.133 266.668 270.88 266.188 271.36C265.761 271.787 265.041 272 264.028 272ZM319.972 272H279.252C278.238 272 277.492 271.787 277.012 271.36C276.585 270.88 276.372 270.133 276.372 269.12V217.28C276.372 216.267 276.585 215.547 277.012 215.12C277.492 214.64 278.238 214.4 279.252 214.4H291.652C292.665 214.4 293.385 214.64 293.812 215.12C294.292 215.547 294.532 216.267 294.532 217.28V256.88H305.492V243.92C305.492 242.907 305.705 242.187 306.132 241.76C306.612 241.28 307.358 241.04 308.372 241.04H319.972C320.985 241.04 321.705 241.28 322.132 241.76C322.612 242.187 322.852 242.907 322.852 243.92V269.12C322.852 270.133 322.612 270.88 322.132 271.36C321.705 271.787 320.985 272 319.972 272ZM380.797 256.88C380.797 259.333 380.423 261.573 379.677 263.6C378.983 265.573 377.703 267.28 375.837 268.72C374.023 270.107 371.49 271.2 368.237 272C365.037 272.8 360.957 273.2 355.997 273.2C351.037 273.2 346.93 272.8 343.677 272C340.423 271.2 337.863 270.107 335.997 268.72C334.183 267.28 332.903 265.573 332.157 263.6C331.463 261.573 331.117 259.333 331.117 256.88V229.6C331.117 227.147 331.463 224.933 332.157 222.96C332.903 220.933 334.183 219.2 335.997 217.76C337.863 216.32 340.423 215.2 343.677 214.4C346.93 213.6 351.037 213.2 355.997 213.2C360.957 213.2 365.037 213.6 368.237 214.4C371.49 215.2 374.023 216.32 375.837 217.76C377.703 219.2 378.983 220.933 379.677 222.96C380.423 224.933 380.797 227.147 380.797 229.6V256.88ZM349.277 254C349.277 255.067 349.677 255.973 350.477 256.72C351.277 257.413 353.117 257.76 355.997 257.76C358.877 257.76 360.717 257.413 361.517 256.72C362.317 255.973 362.717 255.067 362.717 254V232.48C362.717 231.467 362.317 230.613 361.517 229.92C360.717 229.173 358.877 228.8 355.997 228.8C353.117 228.8 351.277 229.173 350.477 229.92C349.677 230.613 349.277 231.467 349.277 232.48V254ZM406.261 272H393.861C392.848 272 392.101 271.787 391.621 271.36C391.194 270.88 390.981 270.133 390.981 269.12V217.28C390.981 216.267 391.194 215.547 391.621 215.12C392.101 214.64 392.848 214.4 393.861 214.4H418.341C425.594 214.4 430.554 215.84 433.221 218.72C435.888 221.6 437.221 225.36 437.221 230V240.24C437.221 244.88 435.888 248.64 433.221 251.52C430.554 254.4 425.594 255.84 418.341 255.84H409.141V269.12C409.141 270.133 408.901 270.88 408.421 271.36C407.994 271.787 407.274 272 406.261 272ZM408.981 229.36V241.44H416.181C417.728 241.44 418.741 241.04 419.221 240.24C419.701 239.44 419.941 238.533 419.941 237.52V233.28C419.941 232.267 419.701 231.36 419.221 230.56C418.741 229.76 417.728 229.36 416.181 229.36H408.981ZM460.312 272H448.392C447.379 272 446.632 271.787 446.152 271.36C445.726 270.88 445.512 270.133 445.512 269.12V217.28C445.512 216.267 445.726 215.547 446.152 215.12C446.632 214.64 447.379 214.4 448.392 214.4H461.272C462.126 214.4 462.819 214.587 463.352 214.96C463.939 215.333 464.472 215.947 464.952 216.8L472.152 229.84C472.419 230.32 472.632 230.667 472.792 230.88C473.006 231.093 473.272 231.2 473.592 231.2H474.312C474.632 231.2 474.872 231.093 475.032 230.88C475.246 230.667 475.486 230.32 475.752 229.84L482.872 216.8C483.352 215.947 483.859 215.333 484.392 214.96C484.979 214.587 485.699 214.4 486.552 214.4H499.512C500.526 214.4 501.246 214.64 501.672 215.12C502.152 215.547 502.392 216.267 502.392 217.28V269.12C502.392 270.133 502.152 270.88 501.672 271.36C501.246 271.787 500.526 272 499.512 272H487.192C486.179 272 485.432 271.787 484.952 271.36C484.526 270.88 484.312 270.133 484.312 269.12V240.96L479.592 249.68C479.112 250.587 478.526 251.253 477.832 251.68C477.192 252.053 476.366 252.24 475.352 252.24H472.152C471.139 252.24 470.286 252.053 469.592 251.68C468.952 251.253 468.392 250.587 467.912 249.68L463.192 240.96V269.12C463.192 270.133 462.952 270.88 462.472 271.36C462.046 271.787 461.326 272 460.312 272ZM553.403 272H516.283C515.269 272 514.523 271.787 514.043 271.36C513.616 270.88 513.403 270.133 513.403 269.12V217.28C513.403 216.267 513.616 215.547 514.043 215.12C514.523 214.64 515.269 214.4 516.283 214.4H553.403C554.416 214.4 555.136 214.64 555.563 215.12C556.043 215.547 556.283 216.267 556.283 217.28V226.64C556.283 227.653 556.043 228.4 555.563 228.88C555.136 229.307 554.416 229.52 553.403 229.52H531.323V235.68H546.923C547.936 235.68 548.656 235.92 549.083 236.4C549.563 236.827 549.803 237.547 549.803 238.56V247.12C549.803 248.133 549.563 248.88 549.083 249.36C548.656 249.787 547.936 250 546.923 250H531.323V256.88H553.403C554.416 256.88 555.136 257.12 555.563 257.6C556.043 258.027 556.283 258.747 556.283 259.76V269.12C556.283 270.133 556.043 270.88 555.563 271.36C555.136 271.787 554.416 272 553.403 272ZM580.627 272H568.627C567.613 272 566.867 271.787 566.387 271.36C565.96 270.88 565.747 270.133 565.747 269.12V217.28C565.747 216.267 565.96 215.547 566.387 215.12C566.867 214.64 567.613 214.4 568.627 214.4H576.947C577.96 214.4 578.813 214.56 579.507 214.88C580.253 215.2 580.973 215.76 581.667 216.56L597.187 234.32V217.28C597.187 216.267 597.4 215.547 597.827 215.12C598.307 214.64 599.053 214.4 600.067 214.4H612.067C613.08 214.4 613.8 214.64 614.227 215.12C614.707 215.547 614.947 216.267 614.947 217.28V269.12C614.947 270.133 614.707 270.88 614.227 271.36C613.8 271.787 613.08 272 612.067 272H600.067C599.053 272 598.307 271.787 597.827 271.36C597.4 270.88 597.187 270.133 597.187 269.12V259.28L583.507 242.72V269.12C583.507 270.133 583.267 270.88 582.787 271.36C582.36 271.787 581.64 272 580.627 272ZM653.181 272H640.221C639.208 272 638.461 271.787 637.981 271.36C637.554 270.88 637.341 270.133 637.341 269.12V229.84H625.581C624.568 229.84 623.821 229.627 623.341 229.2C622.914 228.72 622.701 227.973 622.701 226.96V217.28C622.701 216.267 622.914 215.547 623.341 215.12C623.821 214.64 624.568 214.4 625.581 214.4H667.821C668.834 214.4 669.554 214.64 669.981 215.12C670.461 215.547 670.701 216.267 670.701 217.28V226.96C670.701 227.973 670.461 228.72 669.981 229.2C669.554 229.627 668.834 229.84 667.821 229.84H656.061V269.12C656.061 270.133 655.821 270.88 655.341 271.36C654.914 271.787 654.194 272 653.181 272Z" fill="white"/>
</svg>
