<svg width="537" height="549" viewBox="0 0 537 549" fill="none" xmlns="http://www.w3.org/2000/svg">
<rect y="32" width="537" height="517" rx="5" fill="url(#paint0_linear)" fill-opacity="0.5"/>
<g clip-path="url(#clip0)">
<path d="M536.66 532.846L523.235 478.146C516.865 451.61 497.554 430.27 472.108 421.646L373.657 388.233C349.648 378.045 338.663 338.661 336.291 323.71C354.584 308.214 366.355 286.168 369.182 262.104C368.778 257.994 369.73 253.864 371.889 250.366C375.377 249.476 378.233 246.931 379.563 243.528C386.005 227.64 390.048 210.849 391.556 193.729C391.56 192.798 391.447 191.872 391.221 190.971C389.618 184.319 385.779 178.448 380.369 174.379V113.958C380.369 77.2402 369.36 62.1753 357.77 53.4457C355.557 35.7601 336.963 0 268.495 0C207.75 2.49141 159.066 52.0825 156.62 113.959V174.38C151.21 178.449 147.37 184.32 145.768 190.972C145.541 191.873 145.429 192.8 145.432 193.73C146.938 210.859 150.982 227.657 157.426 243.553C158.395 246.774 160.936 249.251 164.138 250.094C165.391 250.732 167.741 254.038 167.741 262.106C170.584 286.238 182.423 308.335 200.811 323.826C198.462 338.754 187.543 378.116 164.206 388.053L64.8832 421.647C39.4565 430.27 20.1581 451.589 13.7791 478.103L0.354084 532.803C-1.16567 538.903 2.45699 545.104 8.44579 546.652C9.34044 546.884 10.2603 547.001 11.1832 547.002H525.809C531.987 547 536.994 541.896 536.993 535.603C536.992 534.672 536.88 533.747 536.66 532.846Z" fill="#E7DFDD"/>
</g>
<defs>
<linearGradient id="paint0_linear" x1="268.5" y1="32" x2="268.5" y2="549" gradientUnits="userSpaceOnUse">
<stop stop-color="#A239CA" stop-opacity="0"/>
<stop offset="1" stop-color="#A239CA"/>
</linearGradient>
<clipPath id="clip0">
<rect width="537" height="547" fill="white"/>
</clipPath>
</defs>
</svg>
